#N canvas 53 23 1280 751 10;
#X obj 53 54 OSCroute /digital;
#X obj 462 90 soundfiler;
#X obj 454 -6 loadbang;
#X obj 174 85 print;
#X obj 31 183 bng 15 250 50 0 empty empty empty 17 7 0 10 -262144 -1
-1;
#X obj 52 91 OSCroute /pin;
#X obj 216 97 change;
#X obj 27 248 int;
#X floatatom 33 279 5 0 0 0 - - -;
#X floatatom 35 343 5 0 0 0 - - -;
#N canvas 0 22 450 278 (subpatch) 0;
#X array ta 176401 float 2;
#X coords 0 1 176401 -1 200 140 1;
#X restore 1332 10 graph;
#N canvas 0 22 450 278 (subpatch) 0;
#X array tuk 176401 float 2;
#X coords 0 1 176401 -1 200 140 1;
#X restore 1551 9 graph;
#N canvas 0 22 450 278 (subpatch) 0;
#X array wee 176401 float 2;
#X coords 0 1 176401 -1 200 140 1;
#X restore 1769 7 graph;
#N canvas 0 22 450 278 (subpatch) 0;
#X array mel1 176401 float 2;
#X coords 0 1 176401 -1 200 140 1;
#X restore 1333 172 graph;
#N canvas 0 22 450 278 (subpatch) 0;
#X array mel21 176401 float 2;
#X coords 0 1 176401 -1 200 140 1;
#X restore 1553 170 graph;
#N canvas 0 22 450 278 (subpatch) 0;
#X array mel3 196476 float 2;
#X coords 0 1 196476 -1 200 140 1;
#X restore 1769 170 graph;
#X obj 53 13 dumpOSC 11112;
#X obj 59 421 bng 15 250 50 0 empty empty empty 17 7 0 10 -262144 -1
-1;
#X obj 106 423 bng 15 250 50 0 empty empty empty 17 7 0 10 -262144
-1 -1;
#X obj 112 464 tabplay~ ta;
#X obj 137 520 dac~;
#X obj 25 954 output~;
#X obj 34 856 phasor~;
#X floatatom 84 823 5 0 0 0 - - -;
#X obj 108 755 hsl 128 15 0 127 0 0 empty empty empty -2 -8 0 10 -262144
-1 -1 100 1;
#X obj 144 800 * 0.01;
#X obj 71 602 tgl 15 0 empty empty empty 17 7 0 10 -262144 -1 -1 0
1;
#X floatatom 196 719 5 0 0 0 - - -;
#X obj 198 697 % 127;
#X floatatom 86 730 5 0 0 0 - - -;
#X obj 108 696 expr 127-$f1;
#X obj 33 890 *~ 44100;
#X obj 61 652 select 0;
#X floatatom 44 709 5 0 0 0 - - -;
#X obj 86 569 bng 15 250 50 0 empty empty empty 17 7 0 10 -262144 -1
-1;
#X obj 248 666 + 1;
#X obj 194 666 int;
#X obj 191 636 metro 5;
#X obj 38 511 delay 635;
#X floatatom 107 277 5 0 0 0 - - -;
#X obj 114 246 bng 15 250 50 0 empty empty empty 17 7 0 10 -262144
-1 -1;
#X obj 21 146 select 0;
#X obj 240 117 route 0 1 2 3 4 5;
#X msg 456 19 read -resize ta.wav ta \, read -resize tuk.wav tuk \,
read -resize wee.wav wee \, read -resize mel1.wav mel1 \, read -resize
mel2.wav mel21 \, read -resize sound4.wav mel3;
#X obj 34 924 tabread4~ sample1;
#X obj 253 199 bng 15 250 50 0 empty empty empty 17 7 0 10 -262144
-1 -1;
#X obj 249 264 int;
#X obj 295 268 + 1;
#X floatatom 255 295 5 0 0 0 - - -;
#X floatatom 257 359 5 0 0 0 - - -;
#X obj 281 437 bng 15 250 50 0 empty empty empty 17 7 0 10 -262144
-1 -1;
#X obj 328 439 bng 15 250 50 0 empty empty empty 17 7 0 10 -262144
-1 -1;
#X obj 359 536 dac~;
#X obj 247 970 output~;
#X obj 256 872 phasor~;
#X floatatom 306 839 5 0 0 0 - - -;
#X obj 293 618 tgl 15 0 empty empty empty 17 7 0 10 -262144 -1 -1 0
1;
#X obj 255 906 *~ 44100;
#X obj 283 668 select 0;
#X floatatom 266 725 5 0 0 0 - - -;
#X obj 254 325 mod 50;
#X floatatom 329 293 5 0 0 0 - - -;
#X obj 336 262 bng 15 250 50 0 empty empty empty 17 7 0 10 -262144
-1 -1;
#X obj 374 414 mod 10;
#X obj 275 396 select 49 0 1;
#X obj 389 447 select 0;
#X obj 460 185 bng 15 250 50 0 empty empty empty 17 7 0 10 -262144
-1 -1;
#X obj 456 250 int;
#X obj 502 254 + 1;
#X floatatom 462 281 5 0 0 0 - - -;
#X floatatom 464 345 5 0 0 0 - - -;
#X obj 488 424 bng 15 250 50 0 empty empty empty 17 7 0 10 -262144
-1 -1;
#X obj 535 425 bng 15 250 50 0 empty empty empty 17 7 0 10 -262144
-1 -1;
#X obj 566 522 dac~;
#X obj 454 956 output~;
#X obj 463 858 phasor~;
#X floatatom 513 825 5 0 0 0 - - -;
#X obj 537 757 hsl 128 15 0 127 0 0 empty empty empty -2 -8 0 10 -262144
-1 -1 7500 1;
#X obj 573 802 * 0.01;
#X obj 501 604 tgl 15 0 empty empty empty 17 7 0 10 -262144 -1 -1 0
1;
#X floatatom 515 732 5 0 0 0 - - -;
#X obj 537 698 expr 127-$f1;
#X obj 462 892 *~ 44100;
#X obj 490 654 select 0;
#X floatatom 473 711 5 0 0 0 - - -;
#X obj 515 571 bng 15 250 50 0 empty empty empty 17 7 0 10 -262144
-1 -1;
#X obj 467 513 delay 635;
#X obj 461 311 mod 50;
#X obj 596 433 select 0;
#X obj 236 168 select 1;
#X obj 256 940 tabread4~ tuk;
#X obj 334 480 tabplay~ tuk;
#X obj 363 706 int;
#X obj 398 704 + 1;
#X obj 307 784 sin \$1;
#X obj 315 816 * 100;
#X obj 73 252 + 1;
#X obj 541 466 tabplay~ wee;
#X obj 463 926 tabread4~ wee;
#X obj 580 400 mod 30;
#X floatatom 626 716 5 0 0 0 - - -;
#X obj 628 694 % 127;
#X obj 624 663 int;
#X obj 621 633 metro 5;
#X obj 659 661 + 1;
#X obj 482 382 select 32 0 1;
#X obj 182 311 select -1;
#X obj 694 183 bng 15 250 50 0 empty empty empty 17 7 0 10 -262144
-1 -1;
#X obj 690 248 int;
#X obj 736 252 + 1;
#X floatatom 696 279 5 0 0 0 - - -;
#X floatatom 698 343 5 0 0 0 - - -;
#X obj 722 421 bng 15 250 50 0 empty empty empty 17 7 0 10 -262144
-1 -1;
#X obj 769 423 bng 15 250 50 0 empty empty empty 17 7 0 10 -262144
-1 -1;
#X obj 800 520 dac~;
#X obj 688 954 output~;
#X obj 697 856 phasor~;
#X floatatom 747 823 5 0 0 0 - - -;
#X obj 771 755 hsl 128 15 0 127 0 0 empty empty empty -2 -8 0 10 -262144
-1 -1 100 1;
#X obj 807 800 * 0.01;
#X obj 734 602 tgl 15 0 empty empty empty 17 7 0 10 -262144 -1 -1 0
1;
#X floatatom 749 730 5 0 0 0 - - -;
#X obj 771 696 expr 127-$f1;
#X obj 696 890 *~ 44100;
#X obj 724 652 select 0;
#X floatatom 707 709 5 0 0 0 - - -;
#X obj 749 569 bng 15 250 50 0 empty empty empty 17 7 0 10 -262144
-1 -1;
#X obj 701 511 delay 635;
#X obj 695 309 mod 50;
#X obj 830 431 select 0;
#X floatatom 858 727 5 0 0 0 - - -;
#X obj 860 705 % 127;
#X obj 856 674 int;
#X obj 853 644 metro 5;
#X obj 891 672 + 1;
#X obj 775 464 tabplay~ mel1;
#X obj 697 924 tabread4~ mel1;
#X obj 815 398 mod 30;
#X obj 899 192 bng 15 250 50 0 empty empty empty 17 7 0 10 -262144
-1 -1;
#X obj 895 257 int;
#X obj 941 261 + 1;
#X floatatom 901 288 5 0 0 0 - - -;
#X floatatom 903 352 5 0 0 0 - - -;
#X obj 927 430 bng 15 250 50 0 empty empty empty 17 7 0 10 -262144
-1 -1;
#X obj 974 432 bng 15 250 50 0 empty empty empty 17 7 0 10 -262144
-1 -1;
#X obj 1005 529 dac~;
#X obj 893 961 output~;
#X obj 902 865 phasor~;
#X floatatom 952 832 5 0 0 0 - - -;
#X obj 976 764 hsl 128 15 0 127 0 0 empty empty empty -2 -8 0 10 -262144
-1 -1 100 1;
#X obj 1012 809 * 0.01;
#X obj 939 611 tgl 15 0 empty empty empty 17 7 0 10 -262144 -1 -1 0
1;
#X floatatom 954 739 5 0 0 0 - - -;
#X obj 976 705 expr 127-$f1;
#X obj 901 899 *~ 44100;
#X obj 929 661 select 0;
#X floatatom 912 718 5 0 0 0 - - -;
#X obj 954 578 bng 15 250 50 0 empty empty empty 17 7 0 10 -262144
-1 -1;
#X obj 906 520 delay 635;
#X obj 900 318 mod 50;
#X obj 1035 440 select 0;
#X floatatom 1063 736 5 0 0 0 - - -;
#X obj 1065 714 % 127;
#X obj 1061 683 int;
#X obj 1058 653 metro 5;
#X obj 1096 681 + 1;
#X obj 1020 407 mod 30;
#X floatatom 1128 232 5 0 0 0 - - -;
#X floatatom 1131 296 5 0 0 0 - - -;
#X obj 1155 374 bng 15 250 50 0 empty empty empty 17 7 0 10 -262144
-1 -1;
#X obj 1202 376 bng 15 250 50 0 empty empty empty 17 7 0 10 -262144
-1 -1;
#X obj 1233 473 dac~;
#X obj 1121 907 output~;
#X obj 1130 809 phasor~;
#X floatatom 1180 776 5 0 0 0 - - -;
#X obj 1204 708 hsl 128 15 0 127 0 0 empty empty empty -2 -8 0 10 -262144
-1 -1 12600 1;
#X obj 1240 753 * 0.01;
#X obj 1167 555 tgl 15 0 empty empty empty 17 7 0 10 -262144 -1 -1
0 1;
#X floatatom 1182 683 5 0 0 0 - - -;
#X obj 1204 649 expr 127-$f1;
#X obj 1129 843 *~ 44100;
#X obj 1157 605 select 0;
#X floatatom 1140 662 5 0 0 0 - - -;
#X obj 1182 522 bng 15 250 50 0 empty empty empty 17 7 0 10 -262144
-1 -1;
#X obj 1134 464 delay 635;
#X obj 1149 333 select 49 0 1;
#X obj 1263 384 select 0;
#X obj 1130 877 tabread4~ mel1;
#X obj 1248 351 mod 30;
#X obj 1115 163 bng 15 250 50 0 empty empty empty 17 7 0 10 -262144
-1 -1;
#X obj 902 933 tabread4~ mel21;
#X obj 980 473 tabplay~ mel21;
#X obj 1208 417 tabplay~ mel3;
#X obj 1125 202 int;
#X obj 1171 206 + 1;
#X floatatom 1298 668 5 0 0 0 - - -;
#X obj 1300 646 % 127;
#X obj 1296 615 int;
#X obj 1293 585 metro 5;
#X obj 1331 613 + 1;
#X obj 921 388 select 18 0 1;
#X obj 1128 262 mod 80;
#X obj 360 677 metro 120;
#X floatatom 999 952 5 0 0 0 - - -;
#X obj 1056 819 int;
#X obj 1091 817 + 1;
#X obj 1000 897 sin \$1;
#X obj 1008 929 * 100;
#X obj 1053 790 metro 100;
#X obj 716 380 select 10 0 1;
#X obj 30 308 mod 60;
#X obj -126 855 output~;
#X obj -117 757 phasor~;
#X floatatom -67 724 5 0 0 0 - - -;
#X obj -80 503 tgl 15 0 empty empty empty 17 7 0 10 -262144 -1 -1 0
1;
#X obj -118 791 *~ 44100;
#X obj -90 553 select 0;
#X floatatom -107 610 5 0 0 0 - - -;
#X text -120 691 comment;
#X obj -10 591 int;
#X obj 25 589 + 1;
#X obj -66 669 sin \$1;
#X obj -13 562 metro 100;
#X obj -117 825 tabread4~ ta;
#X obj -58 701 * 1000;
#X obj -9 416 bng 15 250 50 0 empty empty empty 17 7 0 10 -262144 -1
-1;
#X obj -56 460 delay 635;
#X obj 53 380 select 12 0 30 35;
#X connect 0 0 3 0;
#X connect 0 0 5 0;
#X connect 2 0 43 0;
#X connect 4 0 7 0;
#X connect 5 0 41 0;
#X connect 5 0 42 0;
#X connect 5 0 89 0;
#X connect 5 0 106 0;
#X connect 7 0 8 0;
#X connect 8 0 96 0;
#X connect 8 0 210 0;
#X connect 9 0 227 0;
#X connect 16 0 0 0;
#X connect 17 0 26 0;
#X connect 17 0 38 0;
#X connect 18 0 19 0;
#X connect 19 0 20 0;
#X connect 19 0 20 1;
#X connect 22 0 31 0;
#X connect 23 0 22 0;
#X connect 24 0 25 0;
#X connect 25 0 23 0;
#X connect 26 0 32 0;
#X connect 26 0 37 0;
#X connect 27 0 30 0;
#X connect 28 0 27 0;
#X connect 30 0 29 0;
#X connect 30 0 24 0;
#X connect 31 0 44 0;
#X connect 32 0 33 0;
#X connect 33 0 22 0;
#X connect 34 0 26 0;
#X connect 35 0 36 1;
#X connect 36 0 28 0;
#X connect 36 0 35 0;
#X connect 37 0 36 0;
#X connect 38 0 26 0;
#X connect 40 0 39 0;
#X connect 41 1 40 0;
#X connect 42 0 4 0;
#X connect 42 1 45 0;
#X connect 42 2 66 0;
#X connect 42 3 107 0;
#X connect 42 4 138 0;
#X connect 42 5 189 0;
#X connect 43 0 1 0;
#X connect 44 0 21 0;
#X connect 44 0 21 1;
#X connect 45 0 46 0;
#X connect 46 0 48 0;
#X connect 47 0 46 1;
#X connect 48 0 47 0;
#X connect 48 0 60 0;
#X connect 49 0 64 0;
#X connect 50 0 56 0;
#X connect 51 0 91 0;
#X connect 54 0 57 0;
#X connect 55 0 54 0;
#X connect 56 0 58 0;
#X connect 56 0 202 0;
#X connect 57 0 90 0;
#X connect 58 0 59 0;
#X connect 59 0 54 0;
#X connect 60 0 49 0;
#X connect 62 0 61 0;
#X connect 63 0 65 0;
#X connect 64 0 50 0;
#X connect 64 2 51 0;
#X connect 64 3 63 0;
#X connect 65 0 51 0;
#X connect 66 0 67 0;
#X connect 67 0 69 0;
#X connect 68 0 67 1;
#X connect 69 0 68 0;
#X connect 69 0 87 0;
#X connect 70 0 105 0;
#X connect 71 0 79 0;
#X connect 71 0 86 0;
#X connect 72 0 97 0;
#X connect 75 0 82 0;
#X connect 76 0 75 0;
#X connect 77 0 78 0;
#X connect 78 0 76 0;
#X connect 79 0 83 0;
#X connect 79 0 103 0;
#X connect 81 0 80 0;
#X connect 82 0 98 0;
#X connect 83 0 84 0;
#X connect 84 0 76 0;
#X connect 85 0 79 0;
#X connect 86 0 79 0;
#X connect 87 0 70 0;
#X connect 89 1 62 0;
#X connect 90 0 53 0;
#X connect 90 0 53 1;
#X connect 91 0 52 0;
#X connect 91 0 52 1;
#X connect 92 0 93 0;
#X connect 92 0 94 0;
#X connect 93 0 92 1;
#X connect 94 0 95 0;
#X connect 95 0 55 0;
#X connect 96 0 7 1;
#X connect 97 0 73 0;
#X connect 97 0 73 1;
#X connect 98 0 74 0;
#X connect 98 0 74 1;
#X connect 99 0 88 0;
#X connect 100 0 77 0;
#X connect 101 0 100 0;
#X connect 102 0 101 0;
#X connect 102 0 104 0;
#X connect 103 0 102 0;
#X connect 104 0 102 1;
#X connect 105 0 71 0;
#X connect 105 2 72 0;
#X connect 105 3 99 0;
#X connect 107 0 108 0;
#X connect 108 0 110 0;
#X connect 109 0 108 1;
#X connect 110 0 109 0;
#X connect 110 0 128 0;
#X connect 111 0 209 0;
#X connect 112 0 120 0;
#X connect 112 0 127 0;
#X connect 113 0 135 0;
#X connect 116 0 123 0;
#X connect 117 0 116 0;
#X connect 118 0 119 0;
#X connect 119 0 117 0;
#X connect 120 0 124 0;
#X connect 120 0 133 0;
#X connect 122 0 121 0;
#X connect 122 0 118 0;
#X connect 123 0 136 0;
#X connect 124 0 125 0;
#X connect 125 0 116 0;
#X connect 126 0 120 0;
#X connect 127 0 120 0;
#X connect 128 0 111 0;
#X connect 129 0 113 0;
#X connect 130 0 122 0;
#X connect 131 0 130 0;
#X connect 132 0 131 0;
#X connect 132 0 134 0;
#X connect 133 0 132 0;
#X connect 134 0 132 1;
#X connect 135 0 114 0;
#X connect 135 0 114 1;
#X connect 136 0 115 0;
#X connect 136 0 115 1;
#X connect 137 0 129 0;
#X connect 138 0 139 0;
#X connect 139 0 141 0;
#X connect 140 0 139 1;
#X connect 141 0 140 0;
#X connect 141 0 159 0;
#X connect 142 0 200 0;
#X connect 143 0 151 0;
#X connect 143 0 158 0;
#X connect 144 0 191 0;
#X connect 147 0 154 0;
#X connect 149 0 150 0;
#X connect 150 0 148 0;
#X connect 151 0 155 0;
#X connect 151 0 164 0;
#X connect 151 0 208 0;
#X connect 153 0 152 0;
#X connect 153 0 149 0;
#X connect 154 0 190 0;
#X connect 155 0 156 0;
#X connect 156 0 147 0;
#X connect 157 0 151 0;
#X connect 158 0 151 0;
#X connect 159 0 142 0;
#X connect 160 0 144 0;
#X connect 161 0 153 0;
#X connect 162 0 161 0;
#X connect 163 0 162 0;
#X connect 163 0 165 0;
#X connect 164 0 163 0;
#X connect 165 0 163 1;
#X connect 166 0 160 0;
#X connect 167 0 194 0;
#X connect 167 0 201 0;
#X connect 168 0 185 0;
#X connect 169 0 177 0;
#X connect 169 0 184 0;
#X connect 170 0 192 0;
#X connect 173 0 180 0;
#X connect 174 0 173 0;
#X connect 175 0 176 0;
#X connect 176 0 174 0;
#X connect 177 0 181 0;
#X connect 177 0 198 0;
#X connect 179 0 178 0;
#X connect 179 0 175 0;
#X connect 180 0 187 0;
#X connect 181 0 182 0;
#X connect 182 0 173 0;
#X connect 183 0 177 0;
#X connect 184 0 177 0;
#X connect 185 0 169 0;
#X connect 185 3 188 0;
#X connect 186 0 170 0;
#X connect 187 0 172 0;
#X connect 187 0 172 1;
#X connect 188 0 186 0;
#X connect 189 0 193 0;
#X connect 190 0 146 0;
#X connect 190 0 146 1;
#X connect 191 0 145 0;
#X connect 191 0 145 1;
#X connect 192 0 171 0;
#X connect 192 0 171 1;
#X connect 193 0 167 0;
#X connect 194 0 193 1;
#X connect 195 0 175 0;
#X connect 196 0 195 0;
#X connect 197 0 196 0;
#X connect 197 0 199 0;
#X connect 198 0 197 0;
#X connect 199 0 197 1;
#X connect 200 0 143 0;
#X connect 200 3 166 0;
#X connect 201 0 168 0;
#X connect 202 0 92 0;
#X connect 203 0 147 0;
#X connect 204 0 205 0;
#X connect 204 0 206 0;
#X connect 205 0 204 1;
#X connect 206 0 207 0;
#X connect 207 0 203 0;
#X connect 208 0 204 0;
#X connect 209 0 112 0;
#X connect 209 3 137 0;
#X connect 210 0 9 0;
#X connect 212 0 215 0;
#X connect 213 0 212 0;
#X connect 214 0 222 0;
#X connect 214 0 216 0;
#X connect 215 0 223 0;
#X connect 216 0 217 0;
#X connect 217 0 212 0;
#X connect 219 0 220 0;
#X connect 219 0 221 0;
#X connect 220 0 219 1;
#X connect 221 0 224 0;
#X connect 222 0 219 0;
#X connect 223 0 211 0;
#X connect 223 0 211 1;
#X connect 224 0 213 0;
#X connect 225 0 226 0;
#X connect 225 0 214 0;
#X connect 226 0 214 0;
#X connect 227 0 17 0;
#X connect 227 1 18 0;
#X connect 227 2 18 0;
#X connect 227 3 225 0;
